<svg width="188" height="67" fill="none" xmlns="http://www.w3.org/2000/svg"><path d="M6.318 52.578c.723-.416 1.75-.644 2.778-.644 2.017 0 2.283 1.174 2.283 2.196 0 1.136-.076 2.233-.076 3.217 0 .72.038 1.363.19 1.893h-.837l-.305-.984h-.076c-.342.53-1.027 1.098-2.245 1.098-1.218 0-2.17-.795-2.17-2.044 0-1.666 1.447-2.196 3.54-2.196.267 0 .533 0 .8.038.037-.303.037-.53.037-.757 0-1.06-.342-1.4-1.484-1.4-.647 0-1.598.189-2.131.491l-.304-.908Zm3.92 4.618v-1.173c-.267 0-.533-.038-.838-.038-1.18 0-2.321.227-2.321 1.211 0 .681.532 1.136 1.294 1.136 1.103 0 1.674-.644 1.864-1.136ZM17.773 53.07h-3.045v6.17h-1.142v-7.154h4.187v.984ZM23.938 58.635c-.571.454-1.485.757-2.474.757-2.207 0-3.197-1.477-3.197-3.748 0-2.422 1.142-3.747 3.159-3.747 1.294 0 2.74.416 2.74 2.839 0 .302-.038.643-.076 1.06h-4.643c0 1.665.609 2.65 2.321 2.65.647 0 1.37-.266 1.713-.569l.456.758Zm-4.453-3.786h3.577c0-1.438-.609-1.968-1.598-1.968-1.142 0-1.865.568-1.98 1.968ZM30.37 56.06h-3.274v3.18h-1.141v-7.154h1.141v2.99h3.273v-2.99h1.142v7.154h-1.142v-3.18ZM38.361 53.07h-2.245v6.17h-1.142v-6.17H32.73v-.984h5.67v.984h-.038ZM44.184 58.748c-.57.416-1.408.644-2.245.644-2.208 0-3.045-1.477-3.045-3.748 0-2.422 1.142-3.747 3.12-3.747.914 0 1.523.151 2.056.416l-.343.984c-.456-.227-.99-.416-1.598-.416-1.37 0-2.055.908-2.055 2.763 0 1.439.533 2.763 2.131 2.763.685 0 1.256-.227 1.598-.53l.38.871ZM50.12 53.07h-2.245v6.17h-1.141v-6.17h-2.246v-.984h5.67v.984h-.037ZM51.263 52.086c.647-.038 1.332-.114 2.435-.114 1.903 0 2.664.606 2.664 1.78 0 .643-.342 1.4-1.256 1.703v.076c1.142.227 1.523.794 1.523 1.74 0 1.477-1.104 2.12-3.235 2.12-.8 0-1.484-.075-2.131-.113v-7.192Zm2.55 2.99c.684 0 1.37-.492 1.37-1.098 0-.757-.42-1.022-1.56-1.022-.61 0-.914.038-1.257.038v2.082h1.447Zm-1.409 3.18c.343.038.685.076 1.18.076 1.294 0 1.903-.341 1.903-1.212 0-.681-.457-1.173-1.789-1.173h-1.255v2.309h-.039ZM61.195 51.897c2.17 0 3.159 1.476 3.159 3.747 0 2.423-1.142 3.748-3.159 3.748-2.169 0-3.158-1.477-3.158-3.748 0-2.422 1.141-3.747 3.158-3.747Zm0 6.51c1.294 0 1.941-.87 1.941-2.763 0-1.476-.533-2.763-1.94-2.763-1.295 0-1.942.87-1.942 2.763-.038 1.476.495 2.763 1.941 2.763ZM75.276 58.635c-.57.454-1.484.757-2.473.757-2.208 0-3.197-1.477-3.197-3.748 0-2.422 1.142-3.747 3.159-3.747 1.294 0 2.74.416 2.74 2.839 0 .302-.038.643-.076 1.06h-4.643c0 1.665.609 2.65 2.321 2.65.647 0 1.37-.266 1.713-.569l.456.758Zm-4.452-3.786H74.4c0-1.438-.609-1.968-1.598-1.968-1.142 0-1.865.568-1.98 1.968ZM81.555 59.24v-4.05c0-1.514-.19-2.271-1.37-2.271-.875 0-1.484.605-1.712 1.4v4.921H77.33v-7.154h.8l.228.87h.076c.532-.605 1.141-1.06 2.245-1.06.913 0 1.484.303 1.827 1.174.456-.757 1.256-1.173 2.245-1.173 1.599 0 2.246.643 2.246 3.028v4.315h-1.142v-4.315c0-1.363-.229-2.006-1.37-2.006-.952 0-1.485.567-1.713 1.552v4.77h-1.218ZM88.9 52.578c.724-.416 1.751-.644 2.779-.644 2.017 0 2.283 1.174 2.283 2.196 0 1.136-.076 2.233-.076 3.217 0 .72.038 1.363.19 1.893h-.837l-.305-.984h-.076c-.342.53-1.027 1.098-2.245 1.098-1.218 0-2.17-.795-2.17-2.044 0-1.666 1.447-2.196 3.54-2.196.266 0 .533 0 .8.038.037-.303.037-.53.037-.757 0-1.06-.342-1.4-1.484-1.4-.647 0-1.598.189-2.131.491l-.305-.908Zm3.92 4.618v-1.173c-.266 0-.532-.038-.837-.038-1.18 0-2.321.227-2.321 1.211 0 .681.532 1.136 1.294 1.136 1.065 0 1.674-.644 1.864-1.136ZM96.93 49.096c.457 0 .838.378.838.794 0 .417-.38.757-.838.757-.456 0-.799-.34-.799-.757 0-.416.343-.794.8-.794Zm-.532 2.952h1.141v7.154h-1.141v-7.154ZM101.307 57.461c0 .681.229.946.647.946.228 0 .533-.038.875-.151l.115.908c-.305.152-.952.265-1.37.265-.876 0-1.485-.454-1.485-1.59v-8.63h1.142v8.252h.076ZM103.971 54.584h3.501v1.06h-3.501v-1.06ZM115.35 54.963l.076-1.363h-.076l-.533 1.098-1.75 2.8h-.419l-1.827-2.8-.456-1.098.114 1.363v4.277h-1.066v-7.154h1.142l2.017 3.217.418.833h.038l.419-.87 1.903-3.18h1.142v7.154h-1.142v-4.277ZM118.585 52.578c.723-.416 1.75-.644 2.778-.644 2.017 0 2.283 1.174 2.283 2.196 0 1.136-.076 2.233-.076 3.217 0 .72.038 1.363.19 1.893h-.837l-.304-.984h-.076c-.343.53-1.028 1.098-2.246 1.098s-2.169-.795-2.169-2.044c0-1.666 1.446-2.196 3.539-2.196.267 0 .533 0 .799.038.038-.303.038-.53.038-.757 0-1.06-.342-1.4-1.484-1.4-.647 0-1.598.189-2.131.491l-.304-.908Zm3.919 4.618v-1.173c-.266 0-.532-.038-.837-.038-1.18 0-2.321.227-2.321 1.211 0 .681.533 1.136 1.294 1.136 1.065 0 1.636-.644 1.864-1.136ZM125.854 52.048h.799l.228.87h.076c.419-.68 1.18-1.021 2.055-1.021 1.903 0 2.854 1.06 2.854 3.596 0 2.422-1.293 3.898-3.31 3.898-.724 0-1.028-.075-1.523-.302v2.99h-1.141V52.048h-.038Zm1.141 2.385v3.558c.343.265.761.416 1.484.416 1.294 0 2.17-1.022 2.17-2.914 0-1.59-.495-2.574-1.865-2.574-1.028-.038-1.56.492-1.789 1.514ZM135.444 55.985h-.647v3.217h-1.142v-7.154h1.142v3.255l.609-.189 2.321-3.028h1.256l-2.245 2.877-.609.454.761.568 2.398 3.255h-1.408l-2.436-3.255ZM145.605 58.635c-.571.454-1.484.757-2.474.757-2.207 0-3.196-1.477-3.196-3.748 0-2.422 1.141-3.747 3.158-3.747 1.294 0 2.74.416 2.74 2.839 0 .302-.038.643-.076 1.06h-4.605c0 1.665.609 2.65 2.322 2.65.647 0 1.37-.266 1.712-.569l.419.758Zm-4.453-3.786h3.578c0-1.438-.609-1.968-1.599-1.968-1.103 0-1.826.568-1.979 1.968ZM152.265 53.07h-2.246v6.17h-1.141v-6.17h-2.246v-.984h5.671v.984h-.038ZM157.897 55l.038-.87h-.038l-.608.908-3.235 4.202h-.647v-7.154h1.141v4.353l-.038.833h.076l.571-.87 3.235-4.316h.685v7.154h-1.142V55h-.038ZM165.661 56.06h-3.273v3.18h-1.142v-7.154h1.142v2.99h3.273v-2.99h1.141v7.154h-1.141v-3.18ZM173.234 53.07h-3.044v6.17h-1.142v-7.154h4.186v.984ZM174.224 52.578c.723-.416 1.75-.644 2.778-.644 2.017 0 2.283 1.174 2.283 2.196 0 1.136-.076 2.233-.076 3.217 0 .72.038 1.363.19 1.893h-.837l-.304-.984h-.076c-.343.53-1.028 1.098-2.246 1.098s-2.169-.795-2.169-2.044c0-1.666 1.446-2.196 3.539-2.196.267 0 .533 0 .8.038.038-.303.038-.53.038-.757 0-1.06-.343-1.4-1.485-1.4-.647 0-1.598.189-2.131.491l-.304-.908Zm3.92 4.618v-1.173c-.267 0-.533-.038-.838-.038-1.179 0-2.321.227-2.321 1.211 0 .681.533 1.136 1.294 1.136 1.103 0 1.674-.644 1.865-1.136ZM28.086 31.418c0-3.71-2.55-6.019-5.823-6.586v-.076c2.778-.909 4.643-2.99 4.643-6.094 0-5.678-5.252-7.23-9.628-7.23H5.975v28.2h11.303c5.404 0 10.808-2.082 10.808-8.214Zm-7.763-11.81c0 2.006-1.485 3.066-4.035 3.066h-3.691v-5.83h3.349c2.892 0 4.377.833 4.377 2.764Zm.913 11.167c0 2.763-2.626 3.33-4.795 3.33h-3.844v-6.434h3.806c2.93 0 4.833.757 4.833 3.104Zm40.91-5.376c0-9.047-6.545-14.724-15.45-14.724-8.83 0-15.413 5.677-15.413 14.724 0 8.934 6.545 14.952 15.413 14.952 8.867.038 15.45-6.018 15.45-14.952Zm-7.344 0c0 5.11-3.35 8.745-8.144 8.745-4.796 0-8.068-3.672-8.068-8.745 0-4.92 3.272-8.592 8.068-8.592 4.795 0 8.144 3.672 8.144 8.592ZM92.44 39.632v-28.2h-6.66l.152 18.396h-.114L74.439 11.432h-7.801v28.2h6.66l-.153-18.434h.114l11.417 18.434h7.764Zm24.508-22.371v-5.83H98.301v28.201h6.774V28.655h10.96v-5.603h-10.96v-5.791h11.873Zm11.265 22.371V19.76h-6.888v19.835h6.888v.038Zm29.037 0-7.421-12.075c3.654-1.098 5.899-3.823 5.899-7.608 0-6.436-5.404-8.517-10.846-8.517h-10.808v28.2h6.736V28.428h2.321l6.127 11.204h7.992Zm-8.296-19.57c0 2.877-2.778 3.407-4.947 3.407h-3.235V16.92h3.653c2.017 0 4.529.53 4.529 3.142Zm31.435 19.57v-5.83h-13.168v-5.866h11.76v-5.451h-11.76v-5.3h12.445v-5.753h-19.067v28.2h19.79Z" fill="#2E2425"/><path fill-rule="evenodd" clip-rule="evenodd" d="M125.891 6.246c.685-2.12-.19-3.634-2.397-4.467 1.56 1.93 1.408 4.05-.495 6.284-2.093 2.498-2.968 4.731-2.322 6.624.8 2.498 2.741 3.18 4.149 3.18s3.653-.871 4.262-3.18c.609-2.233.571-4.542-.342-6.927.19 1.514-.077 2.65-.724 3.407-.913 1.097-1.826 1.173-2.625 0-.609-.947-.267-2.612.494-4.921Z" fill="#DB6020"/></svg>